<?xml version="1.0" encoding="utf-8"?>
<!-- Generator: Adobe Illustrator 16.0.0, SVG Export Plug-In . SVG Version: 6.00 Build 0)  -->
<!DOCTYPE svg PUBLIC "-//W3C//DTD SVG 1.1//EN" "http://www.w3.org/Graphics/SVG/1.1/DTD/svg11.dtd">
<svg version="1.1" id="Слой_1" xmlns="http://www.w3.org/2000/svg" xmlns:xlink="http://www.w3.org/1999/xlink" x="0px" y="0px"
	 width="100px" height="100px" viewBox="0 0 100 100" enable-background="new 0 0 100 100" xml:space="preserve">
<g>
	<path d="M100,49.998c0,27.618-22.383,50.001-50,50.001c-27.606,0-50-22.383-50-50.001C0,22.381,22.394-0.001,50-0.001
		C77.617-0.001,100,22.381,100,49.998z"/>
	<g>
		<g id="Слой_1_1_">
			<g id="XMLID_2_">
				<g>
					<path fill="#A0BFFF" d="M67.861,47.037c0.837-1.879,6.979-14.113,27.199-18.721L67.509,82.45L0.001,48.471
						c0,0,54.157,2.443,59.046-1.588c0,0,3.368-2.06,4.906-12.344c0,0,0.684-5.63,1.729-8.283c0,0,0.949-3.902,4.221-4.178
						c3.283-0.267,6.615,1.348,8.918,3.711c0,0,0.438,0.698-0.428,0.59c-0.853-0.109-3.436-0.858-5.422-0.215
						c0,0-3.494,0.894-4.143,7.066C68.833,33.23,68.604,44.768,67.861,47.037z M67.771,47.242c0.035-0.049,0.057-0.115,0.08-0.191
						C67.818,47.143,67.786,47.206,67.771,47.242z"/>
					<path fill="#A6BDE2" d="M67.852,47.053c-0.022,0.074-0.043,0.141-0.08,0.191C67.786,47.206,67.818,47.143,67.852,47.053z"/>
				</g>
			</g>
			<path fill="#799BD0" d="M48.963,38.474"/>
			<g id="XMLID_3_">
				<g>
					<path fill="#A0BFFF" d="M48.92,46.594c0.587,0.258,7.816,3.391,11.193-0.799c3.52-4.369-1.741,7.76-1.741,7.76h-7.207
						l-32.248-3.762L0,48.469c32.514-9.938,48-2.35,48.915-1.88C48.918,46.59,48.918,46.59,48.92,46.594z"/>
				</g>
			</g>
		</g>
		<g id="Слой_2">
			<path fill="#6699FF" d="M84.803,48.469c0,0-21.246,31.743-84.801,0L67.509,82.45L84.803,48.469z"/>
		</g>
	</g>
</g>
</svg>
